<svg xmlns="http://www.w3.org/2000/svg" width="430.36" height="419.658">
    <g transform="translate(767 182)">
        <path fill="#E1E5EF"
            d="M-708.447-101.333c-8.086 1.855-19.94 11.841-35.567 29.955-8.622 9.995-31.837 13.513-19.396 67.814.296 1.284 1.456 2.397 3.484 3.34 9.566-2.25 15.329-3.376 17.288-3.376 6.963 0-.239-20.271 7.1-27.922 7.34-7.651 25.354-21.026 33.893-9.064s90.487 10.618 94.29-6.341c3.802-16.959 30.291 4.106 47.07 0 21.635-5.294 39.925-17.924 41.645-19.281 6.554-5.17-5.686-19.946-5.686-19.946s-24.001 10.663-38.646 6.546c-17.495-4.917-28.357-24.696-44.384-31.761-5.125-2.259-10.7-4.188-17.021-5.522-17.392-3.671-45.414 1.515-84.07 15.558z" />
        <linearGradient id="a" gradientUnits="userSpaceOnUse" x1="-1914.746" y1="387.72" x2="-1914.664" y2="387.881"
            gradientTransform="matrix(98.5338 17.3742 -8.0658 45.7437 191231.813 15466.535)">
            <stop offset="0" stop-color="#dce1f1" stop-opacity="0" />
            <stop offset="1" stop-color="#6075a8" />
        </linearGradient>
        <path fill="url(#a)"
            d="M-610.235-74.331c19.938 9.62 36.256 14.426 48.949 14.418 19.042-.011 45.58-12.94 45.986-15.261 0 0 1.353 2.025 6.81 0-3.396 3.188-7.687 6.087-10.312 8.966-1.494 1.639-19.244 11.4-23.396 13.08-11.048 4.466-19.089 7.627-26.176 6.558-.922-.139-1.897-.212-2.847-.406-2.208-.453-4.198-.796-5.687-1.241-11.603-3.472-20.9-6.77-25.823-4.77-1.823.741-4.268 3.098-7.331 7.071l-.173-28.415z" />
        <linearGradient id="b" gradientUnits="userSpaceOnUse" x1="-1929.57" y1="383.384" x2="-1929.089" y2="383.973"
            gradientTransform="matrix(43.2943 0 0 49.6764 82798.734 -19090.941)">
            <stop offset="0" stop-color="#dce1f1" stop-opacity="0" />
            <stop offset="1" stop-color="#6075a8" />
        </linearGradient>
        <path fill="url(#b)"
            d="M-710.525-53.813c-23.83 2.08-36.621 7.974-38.374 17.684-1.752 9.709-1.908 19.303-.469 28.781 4.736-.119 7.537.842 8.402 2.883.571 1.348 1.817-1.581 1.695-6.424-.061-2.347-.022-4.216.03-6.104.152-5.421.7-9.439 1.645-11.331.562-1.174 1.169-2.331 2.334-3.508 5.941-6.006 16.76-13.371 21.417-12.605 7.824-.104 8.931-3.229 3.32-9.376z" />
        <path fill="#FFF"
            d="M-718.166 4.208l-1.975-.065c3.057-10.627 4.578-22.792 4.563-36.489-.005-4.373-.404-9.466-1.203-15.281-3.701-26.992 14.058-52.266 40.707-57.93l8.322-1.769c28.107-5.976 55.737 11.968 61.711 40.076a52.057 52.057 0 011.139 10.971c-.016 4.854-.146 9.102-.394 12.742-.974 14.354-3.795 30.515-8.465 48.482 8.602 39.829 13.695 65.243 12.932 96.249-1.151 46.814-4.712 67.799-5.375 78.957-.664 11.156 4.537 10.449 3.251 17.73-1.285 7.281-13.63 6.107-18.698 6.107-5.069 0-11.01-1.023-12.689-6.107-1.68-5.082 3.687-4.93 2.165-14.199-1.521-9.273-10.365-47.15-19.169-84.939-5.116-21.959-10.961-34.723-14.373-39.377-7.37-10.055-45.938-12.971-33.678 5.816 1.511 2.314 8.719 10.277 15.73 15.98 4.08 3.316 10.425 4.146 11.288 8.688 1.727 9.078-3.289 25.477-9.32 31.402-6.033 5.926-13.707 5.576-15.707.178-1.733-4.682 1.19-10.584-4.951-15.883-6.626-5.719-26.231-22.031-35.276-28.459s-17.063-11.553-17.063-28.098 29.97-39.305 34.522-44.783h2.006z" />
        <path fill="#A8AEC0"
            d="M-709.896-101.885c-1.34 2.065-1.365 3.777-.072 5.134.858.903 3.673 2.311 5.316 2.868 3.446 1.169 8.65 2.356 14.818 2.764 15.362 1.02 36.69-2.273 51.65-18.912 1.345-1.687 1.286-3.986-.176-6.896l-31.828 16.092-39.708-1.05z" />
        <path fill="#D1D5E3"
            d="M-710.854-99.884c6.56 3.573 13.031 5.463 19.406 5.67 9.564.31 20.376-1.445 26.757-3.346 12.352-3.682 21.338-9.623 26.959-17.824.231.593.35.989.355 1.18.008.29-7.847 12.13-27.035 17.906-5.159 1.553-15.73 3.581-27.004 3.216-10.185-.328-19.701-5.481-19.606-6.085.066-.404.12-.642.168-.717z" />
        <path fill="none" stroke="#1872A4" stroke-width="5" stroke-linecap="round"
            d="M-715.236-103.637c-14.185-3.076-23.187-9.171-27.006-18.289-5.731-13.675 4.204-20.341 6.924-20.92" />
        <path fill="#FFF"
            d="M-673.024-98.111c25.974-5.521 45.446-19.592 39.897-45.703-5.55-26.112-31.33-42.644-57.303-37.123s-42.303 31.003-36.754 57.114c5.55 26.112 28.187 31.232 54.16 25.712z" />
        <path fill="#1896A4"
            d="M-728.404-129.308c3.956.842 1.51-7.101 3.008-14.161 1.499-7.06 6.791-12.504 2.835-13.346-3.957-.84-11.049 4.967-12.548 12.027-1.5 7.06 2.75 14.639 6.705 15.48z" />
        <path fill="#00C0A5"
            d="M-728.31-135.725c2.637-.26 1.83-4.093 3.686-10.328 1.858-6.235 5.82-10.316 2.37-11.307-3.452-.991-8.98 3.784-10.505 9.11-1.524 5.326 1.81 12.785 4.449 12.525z" />
        <g transform="rotate(-12 226.365 -235.363)">
            <path fill="#D1D5E3"
                d="M-681.979-289.889c20.8 0 39.213-10.8 39.211-35.373.001-24.574-18.949-40.189-39.748-40.188-20.8 0-38.925 15.836-38.925 40.411 0 24.573 18.662 35.15 39.462 35.15z" />
            <path fill="#161440"
                d="M-681.797-291.627c20.8 0 39.213-10.909 39.213-35.733 0-24.823-20.478-36.315-41.279-36.315s-37.398 11.716-37.397 36.539c.001 24.824 18.662 35.509 39.463 35.509z" />
            <path fill="#323166"
                d="M-645.945-323.661c-.076-3.409-2.662-.796-4.926 1.605-3.253 3.449-6.854 8.499-19.394 14.424-14.527 6.864-27.844 1.925-33.922 1.704-2.333-.085-4.179 1.251-3.207 3.718.99 2.518 6.672 4.468 14.098 5.869 0 0 15.787 3.364 28.522-1.696 11.661-4.635 19.021-16.917 18.829-25.624z" />
            <ellipse transform="rotate(180 -708.663 -339.961)" fill="#323166" cx="-708.663" cy="-339.961" rx="2.622"
                ry="2.636" />
            <ellipse transform="rotate(180 -698.783 -346.887)" fill="#323166" cx="-698.783" cy="-346.887" rx="6.119"
                ry="6.15" />
        </g>
        <path fill="none" stroke="#1872A4" stroke-width="5" stroke-linecap="round"
            d="M-637.803-165.102c14.643-1.539 20.061 5.607 16.249 21.439-5.715 23.748-14.063 25.211-14.063 25.211" />
        <path fill="#1896A4"
            d="M-637.588-150.733c-3.076 1.854-3.73-6.226-7.437-12.415-3.708-6.188-10.086-9.846-7.01-11.7 3.077-1.854 11.113 1.657 14.821 7.846 3.705 6.188 2.702 14.415-.374 16.27z" />
        <path fill="#00C0A5"
            d="M-638.767-155.99c-2.589.57-3-3.328-6.687-8.684-3.687-5.357-8.71-8.012-5.736-10.025 2.976-2.013 9.702.817 12.793 5.412 3.09 4.595 2.217 12.727-.37 13.297z" />
        <path opacity=".3" fill="#FFF"
            d="M-650.36-175.062c2.313-.822 5.047-.194 8.2 1.883 4.742 3.122 6.506 7.979 5.289 14.565-.143-5.773-2.004-10.064-5.585-12.874-2.98-2.337-5.616-3.529-7.904-3.574z" />
        <path fill="#E1E5EF"
            d="M-693.55 71.953c1.378.979 2.873 3.508 9.886 9.209 4.08 3.318 10.424 4.146 11.288 8.689 1.727 9.076-3.289 25.477-9.321 31.402-6.032 5.924-13.705 5.574-15.707.176-1.732-4.68 1.191-10.582-4.95-15.881-6.626-5.719-10.989-9.309-16.388-13.664 16.619 2.764 24.773-3.476 25.192-19.931z" />
        <linearGradient id="c" gradientUnits="userSpaceOnUse" x1="-1945.36" y1="383.558" x2="-1945.36" y2="384.388"
            gradientTransform="matrix(26.5744 0 0 59.0334 51011.582 -22566.066)">
            <stop offset="0" stop-color="#c6cfe4" stop-opacity="0" />
            <stop offset="1" stop-color="#94a1c5" />
        </linearGradient>
        <path fill="url(#c)"
            d="M-698.479 66.638c7.141 15.865 11.261 26.607 12.358 32.227 2.266 11.584-1.445 19.176-2.817 20.707-3.943 4.408-9.24.885-7.544 3.537.822 1.287 2.369 1.998 3.988 2.396 1.733.344 6.261.604 10.659-4.057 4.198-4.445 5.877-8.676 7.433-14.188 3.418-12.117 3.769-18.625-1.744-21.838-.646-.375-1.78-.975-3.407-1.797-1.963-.748-4.498-2.582-7.606-5.502-3.108-2.918-6.883-6.748-11.32-11.485z" />
        <linearGradient id="d" gradientUnits="userSpaceOnUse" x1="-1934.035" y1="381.609" x2="-1934.844" y2="381.475"
            gradientTransform="matrix(36.2518 0 0 16.4279 69436.82 -6217.249)">
            <stop offset="0" stop-color="#d8dff0" stop-opacity=".094" />
            <stop offset="1" stop-color="#afbcdc" />
        </linearGradient>
        <path fill="url(#d)"
            d="M-701.396 56.433c-.481-4.248.669-7.697 3.449-10.348 3.108-2.963 17.936-5.111 26.108 3.889 3.911 4.305 6.106 7.631 6.587 9.973-2.341-2.885-4.721-4.699-7.138-5.439-5.396-1.654-10.084-2.814-14.335-2.969-7.679-.277-12.57 1.353-14.671 4.894z" />
        <path fill="#E1E5EF"
            d="M-602.928 144.737c-.279 4.379-2.665 22.762-2.665 32.979 0 7.4 12.831 18.67 3.9 24.289s-16.244 5.123-21.556 5.123c-5.313 0-10.535-4.4-11.51-10.18-.918-5.434 3.031-10.04 2.318-14.322-.484-2.91-7.022-31.783-8.578-39.166-1.057-5.01 8.516-5.117 17.973-5.117 8.137-.001 20.373 2.41 20.118 6.394z" />
        <path fill="#00C0A5"
            d="M-641.532 141.069c6.754-3.654 13.584-5.248 20.487-4.783 6.905.465 13.028 2.18 18.37 5.145l-.31 3.863c-6.292-3.297-12.313-5.178-18.062-5.643-5.749-.463-12.317 1.074-19.71 4.615l-.775-3.197z" />
        <path fill="#1896A4"
            d="M-609.224 138.553c.351 1.357.32 2.643-.09 3.855 1.345.57 2.36 1.018 3.052 1.34.69.324 1.794.834 3.313 1.529l.269-3.91a915.29 915.29 0 01-3.166-1.537c-1.113-.543-2.965-1.061-3.378-1.277z" />
        <g transform="rotate(38 -4.382 441.806)">
            <path fill="#F9F9F9"
                d="M-720.544 354.586c3.669-5.07 17.129-28.697 17.128-33.365.001-1.918-2.976-3.698-5.418-.407-1.476 1.989-3.411 3.998-5.105 5.843-2.863 3.117-6.292 7.937-7.738 6.077-1.446-1.861 6.17-7.181 5.059-8.599-1.111-1.418-1.976-1.793-5.682 1.644-3.706 3.438-13.094 8.715-16.686 20.26-.327 1.051 2.437 6.114 7.9 7.902 3.355 1.098 6.873 5.716 10.542.645z" />
            <linearGradient id="e" gradientUnits="userSpaceOnUse" x1="-1519.013" y1="1322.15" x2="-1518.521"
                y2="1322.542" gradientTransform="matrix(31.696 -9.0887 8.2204 28.6679 36550.66 -51368.191)">
                <stop offset="0" stop-color="#d8dff0" stop-opacity=".094" />
                <stop offset="1" stop-color="#afbcdc" />
            </linearGradient>
            <path fill="url(#e)"
                d="M-709.675 339.311c4.718-8.017 6.597-14.563 6.426-17.197-.128-1.983-1.042-2.745-1.514-2.902-.468-.156-.468-.156-1.31 1.028-.842 1.185-3.107 11.842-9.721 19.465-6.853 7.898-12.553 14.015-12.553 14.015 2.18.803 5.636 1.737 7.823.84.22-.25 8.504-11.262 10.849-15.249z" />
            <path fill="#00C0A5"
                d="M-738.933 345.652c2.38 2.258 4.757 3.933 7.13 5.023 6.465 2.969 11.438 3.661 11.438 3.661s-.51.8-1.299 2.328c-.186.36-.428.9-.728 1.619-5.432-1.782-9.132-3.221-11.1-4.318-1.968-1.097-4.437-2.734-7.407-4.913l1.966-3.4z" />
        </g>
        <path fill="#1896A4"
            d="M-522.552-72.091a9.255 9.255 0 003.558-1.543s1.429 1.904 4.281 5.712a40.64 40.64 0 00-2.118.87c-.45.208-1.075.532-1.877.971a156.694 156.694 0 01-1.93-2.917 188.471 188.471 0 01-1.914-3.093z" />
        <path fill="#FFF"
            d="M-742.563-9.815c1.565.89 2.516 1.78 3.109 3.235.716 1.754 5.91 3.737 6.722 5.853 1.886 4.924.636 6.491-1.56 9.217-4.93 6.121-17.338 7.003-19.385 6.762-4.904-.58-6.783-10.148-9.776-18.796 3.142-7.237 15.008-9.62 20.89-6.271z" />
        <g transform="scale(-1 1) rotate(-55 175.852 161.418)">
            <linearGradient id="f" gradientUnits="userSpaceOnUse" x1="721.763" y1="1539.096" x2="722.604" y2="1539.396"
                gradientTransform="matrix(-10.8443 -10.3953 21.7579 -9.2473 -25026.34 22265.803)">
                <stop offset="0" stop-color="#d8dff0" stop-opacity=".094" />
                <stop offset="1" stop-color="#afbcdc" />
            </linearGradient>
            <path fill="url(#f)"
                d="M641.47 528.702c-1.628-.771-3.193-2.285-4.724-1.937-1.848.42-4.808-2.703-8.663-2.139-5.198.758-5.67 3.194-6.643 6.555-.073.253-1.138 4.753.547 5.225 5.657 1.586 20.727-.423 23.653-2.979 1.239-1.083-2.885-4.116-4.17-4.725z" />
        </g>
        <path fill="#00C0A5"
            d="M-764.202-7.167c2.183-3.098 5.849-4.963 10.997-5.595 5.147-.632 9.805.135 13.966 2.3l-.382 3.533c-3.387-2.793-7.915-3.764-13.584-2.91-5.67.851-9.07 2.944-10.2 6.277l-.797-3.605z" />
        <path fill="#1896A4"
            d="M-750.03-12.96c.33.968.33 1.916 0 2.841 0 0 3.887.09 5.808.8 1.279.473 2.836 1.27 4.666 2.391.124-.724.204-1.282.238-1.676.036-.394.063-1.009.079-1.847-1.212-.952-2.874-1.65-4.983-2.096-2.111-.446-4.047-.583-5.808-.413zm77.271-57.662c-12.035 0-21.792 9.807-21.792 21.903 0 12.096 9.757 21.903 21.792 21.903s21.791-9.806 21.791-21.903c0-12.096-9.756-21.903-21.791-21.903m-.7 36.599c-7.13 0-13.243-6.034-13.243-13.477 0-1.748.318-3.765.897-5.297l5.691 2.53a7.68 7.68 0 00-.067.314 7.528 7.528 0 00-.296 1.784c-.012.12-.018.24-.014.361 0 .028.005.055.006.083.025 2.211 1.012 4.292 2.68 5.655 1.669 1.363 3.84 1.863 5.902 1.359l3.233 5.732a12.413 12.413 0 01-4.786.957m13.136-7.703l-15.173-6.728 9.729-.044c-.348-3.694-3.975-6.693-7.396-6.693a6.7 6.7 0 00-2.279.398l-3.367-5.987a12.991 12.991 0 015.646-1.285c7.49 0 13.892 6.472 13.892 14.312 0 2.113-.262 4.226-1.053 6.027" />
        <path fill="#323166"
            d="M-742.877-72.858c-.926 3.172-.441 6.022 1.452 8.551 0 0 .152.188.397 0 .572-.438 2.945-2.547 7.158-5.486.11-.077.146-.2.104-.372-3.054-3.22-3.43-6.995-1.124-11.327-.423.29-1.711 1.625-3.863 4.003-.756.836-2.131 2.38-4.124 4.631z" />
        <path
            d="M-740.812-75.028c-.527.616-.79 1.13-.79 1.544 0 .413.038.811.115 1.194m2.038-4.107c-.527.616-.79 1.13-.79 1.544s.036.812.114 1.194m2.037-4.108c-.527.616-.79 1.131-.79 1.544 0 .413.037.811.114 1.194"
            fill="none" stroke="#FFF" stroke-width=".6" stroke-linecap="round" />
        <g fill="none" stroke="#FFF" stroke-width=".5" stroke-linecap="round">
            <path d="M-737.999-73.586l-2.813 2.752c-.346.293-.48.436-.407.429 1.46-.133 3.277-.652 3.945-.816" />
            <path d="M-737.582-72.304l-2.557 2.837c-.346.292-.48.436-.406.429 1.46-.133 3.164-.357 3.97-.43" />
        </g>
        <path fill="#323166"
            d="M-703.736-75.91c4.121 0 7.462-3.358 7.462-7.5 0-4.143-3.341-7.5-7.462-7.5s-7.463 3.357-7.463 7.5c0 4.141 3.342 7.5 7.463 7.5z" />
        <ellipse fill="#323166" cx="-645.797" cy="-91.022" rx="7.462" ry="7.5" />
        <g transform="translate(43.191 98.115)">
            <path fill="none" stroke="#B2C1DD" stroke-width="15" stroke-linecap="round"
                d="M-747.851-183.581c-13.592-17.226-22.91-25.159-27.955-23.797-7.566 2.042 3.641 17.714 5.42 19.354" />
            <linearGradient id="g" gradientUnits="userSpaceOnUse" x1="-2050.637" y1="382.072" x2="-2050.317"
                y2="381.829" gradientTransform="matrix(18.3243 0 0 19.396 36800.863 -7604.3)">
                <stop offset="0" stop-color="#5452d7" stop-opacity="0" />
                <stop offset="1" stop-color="#7e7da8" />
            </linearGradient>
            <path fill="url(#g)"
                d="M-772.485-200.847c-8.497-5.397-10.845.442-8.27 4.404a2312.968 2312.968 0 018.271 12.813c.774-.688 3.796-3.078 9.063-7.17-.229.354-.865-.259-1.909-1.841-1.566-2.374-6.755-7.408-7.155-8.206z" />
        </g>
        <g transform="scale(-1 1) rotate(29 -213.417 -292.55)">
            <path fill="none" stroke="#B2C1DD" stroke-width="15" stroke-linecap="round"
                d="M634.17-534.61c-22.624-19.507-37.335-27.89-44.13-25.15-10.194 4.109 4.097 20.851 5.877 22.49" />
            <linearGradient id="h" gradientUnits="userSpaceOnUse" x1="1209.738" y1="82.093" x2="1210.073" y2="81.805"
                gradientTransform="matrix(9.4999 16.9594 -15.2031 10.5974 -9651.495 -21930.404)">
                <stop offset="0" stop-color="#5452d7" stop-opacity="0" />
                <stop offset="1" stop-color="#7e7d9d" />
            </linearGradient>
            <path fill="url(#h)"
                d="M593.502-553.382c-8.538-.994-11.662 1.148-9.377 6.426 3.429 7.917 9.809 13.335 9.809 13.335.502-.444 2.307-2.734 3.533-4.136.446-.509 1.733-1.825 3.861-3.946-.983-.976-1.687-1.72-2.113-2.229-1.231-1.477-2.836-3.752-3.072-4.182-1.362-2.47-2.243-4.226-2.641-5.268z" />
            <path fill="#E1E5EF"
                d="M601.552-542.402c-2.71 2.588-4.532 4.404-5.467 5.444-2.833 3.156-4.063 5.191-4.292 5.622-.718 1.35 1.139 1.976 5.571 1.88 2.14-.795 3.674-1.648 4.606-2.561.932-.913 2.109-2.714 3.529-5.404l-3.947-4.981z" />
        </g>
        <path fill="#E1E5EF"
            d="M-732.017-84.448c2.616-2.927 4.459-4.876 5.529-5.847 3.043-2.761 4.82-3.8 5.185-3.866l2.844 3.316c-3.521 6.542-5.45 9.908-5.788 10.095-.338.188-1.859-.241-4.566-1.286l-3.204-2.412z" />
        <ellipse fill="#D1D5E3" cx="-686.341" cy="-83.554" rx="1.362" ry="1.369" />
        <ellipse fill="#D1D5E3" cx="-675.108" cy="-81.645" rx="1.361" ry="1.369" />
        <ellipse fill="#D1D5E3" cx="-663.433" cy="-85.463" rx="1.361" ry="1.369" />
        <path fill="#FFF"
            d="M-608.924-16.579c-3 19.547.221 46.159 1.78 55.557 1.04 6.264-8.17 2.852-27.63-10.238l7.02-35.173 18.83-10.146z" />
        <ellipse transform="rotate(169.997 -630.964 88.76)" fill="#B3BED7" cx="-630.964" cy="88.759" rx="11.002"
            ry="15.002" />
        <path fill="#B3BED7"
            d="M-736.551 73.303c3.995-1.461 1.825-7.611-2.108-13.045-3.934-5.436-7.41-6.609-11.839-3.975-2.504 1.492-2.504 2.391-1.948 4.479.613 2.307 2.273 5.236 5.132 7.992 5.44 5.242 6.767 6.01 10.763 4.549z" />
        <linearGradient id="i" gradientUnits="userSpaceOnUse" x1="-1941.544" y1="384.086" x2="-1941.529" y2="385.121"
            gradientTransform="matrix(29.2644 0 0 240.328 56202.426 -92397.578)">
            <stop offset="0" stop-color="#d8dff0" stop-opacity=".094" />
            <stop offset="1" stop-color="#afbcdc" />
        </linearGradient>
        <path fill="url(#i)"
            d="M-626.106-98.898c4.729 16.146 6.452 35.598 5.17 58.357-1.923 34.138-10.08 32.618-9.057 47.15 2.479 5.588 10.7 18.865 15.104 40.229 4.404 21.363 7.248 19.992 5.63 91.746 0 0-.302-.234 2.992 1.104.706.285 1.909.867 3.61 1.742 1.545-23.938 2.115-42.629 1.716-56.076-.602-20.172-3.664-33.393-6.7-50.613-.924-5.238-2.477-22.514-2.507-30.262-.028-7.188.091-13.06.889-19.1.676-5.122 1.8-10.376 2.681-16.661.67-4.78 1.141-10.152 1.515-16.537.364-4.701.532-11.29-.501-17.103-.313-1.756-1.445-8.303-5.414-16.024-2.647-5.148-7.69-11.132-15.128-17.952z" />
        <path fill="#00C0A5"
            d="M-718.392-3.15c15.357 4.75 29.559 7.212 42.603 7.391 13.043.177 34.953-3.437 65.73-10.839l-.07 4.784v4.045c-30.396 7.092-52.282 10.438-65.66 10.037-13.379-.398-28.19-3.029-44.438-7.889.415-1.363.74-2.563.976-3.594.233-1.034.519-2.346.859-3.935z" />
        <path fill="#1896A4"
            d="M-629.317-2.231c.383.887.464 2.408.243 4.566-.221 2.157-.553 3.568-.996 4.232l20.088-4.232v-8.991l-19.335 4.425z" />
        <linearGradient id="j" gradientUnits="userSpaceOnUse" x1="-1938.199" y1="383.97" x2="-1938.071" y2="384.011"
            gradientTransform="matrix(32.165 0 0 65.0027 61725.39 -24784.148)">
            <stop offset="0" stop-color="#c6cfe4" stop-opacity="0" />
            <stop offset="1" stop-color="#94a1c5" />
        </linearGradient>
        <path fill="url(#j)"
            d="M-609.312 142.385c-.685 20.447-1.186 31.883-1.502 34.303-.477 3.633 7.896 11.811 6.717 17.82-1.396 7.117-4.947 9.141-14.948 10.551-2.293.322-6.145.047-11.555-.83 1.731 2.105 4.953 3.16 9.664 3.16 2.705 0 5.631-.271 7.789-.719 3.483-.725 14.712-2.533 14.712-9.736 0-7.205-6.607-14.168-7.059-17.826-.231-1.891.494-8.99 1.616-21.523.217-2.426.525-6.531.924-12.32a337.44 337.44 0 00-3.239-1.498c-.721-.328-1.76-.788-3.119-1.382z" />
        <path fill="#00C0A5"
            d="M-720.379 90.523c7.164 1.52 13.139.609 17.924-2.729s7.349-9.041 7.688-17.113l1.265 1.322c0 8.367-2.461 14.285-7.384 17.754-4.924 3.469-10.833 4.217-17.729 2.242l-1.764-1.476z" />
        <path fill="#1896A4"
            d="M-693.804 76.848c-.104-.641-.244-1.139-.425-1.498-.182-.359-.468-.689-.861-.99.09-.795.153-1.402.191-1.82.038-.42.086-1.051.145-1.896l1.247 1.34a30.21 30.21 0 01-.047 2.242 29.739 29.739 0 01-.25 2.622z" />
        <path opacity=".3" fill="#FFF"
            d="M-725.62-156.802c-2.376 1.928-4.114 4.694-5.219 8.298-1.104 3.604-1.104 7.242 0 10.914-2.339-3.887-2.924-7.593-1.754-11.118 1.17-3.525 3.494-6.224 6.973-8.094z" />
    </g>
    <path fill="#18286C"
        d="M305.017 357.545c-25.014-.135-40.695.625-47.042 2.283-.639 0 2.2 2.861 3.302 3.596 1.103.738 15.336-1.44 25.065 4.963 6.487 4.267 12.71.654 18.675-10.842z" />
    <path fill="#B7464C"
        d="M265.517 339.38l-3.437 3.24c1.212.818 3.231.731 6.057-.253a77.33 77.33 0 018.637-2.457l-6.487-3.523-4.77 2.994z" />
    <path fill="#18286C"
        d="M331.837 383.16c8.2 9.607 14.136 15.885 17.804 18.83 5.845 4.693 11.948 9.007 13.955 15.648l5.4.953c1.625.286-3.824-8.13-16.347-25.252l-9.993-8.62-10.819-1.559z" />
    <path fill="#22306B"
        d="M289.368 308.795c5.3 4.588 8.167 8.156 8.603 10.707.435 2.548-2.375 2.652-8.433.309.628-2.174.932-3.899.913-5.179-.02-1.276-.38-3.223-1.083-5.837z" />
    <path fill="#57F"
        d="M387.862 419.658c-3.111-.148-4.993-.279-5.644-.394-.522-.092-19.846-8.496-32.169-19.041-12.324-10.547-25.081-14.861-34.118-18.172-7.337-2.689-18.795-6.406-34.278-8.389-5.111-.654-12.837-1.235-23.174-1.744-1.669-.285-2.734-1.038-3.196-2.259 15.485-4.62 32.106-1.689 32.226-12.912.093-8.605-4.757-14.095-6.747-14.447-3.584-.63-9.924.991-13.214-4.42-3.286-5.407-3.129-7.369-2.501-10.922.043-.246 1.252-.168 3.097-.254 2.997-.138 7.454-.498 9.707-1.836 3.642-2.162 7.665-8.627 16.528-7.062 0 0 1.835-6.771.015-10.405 0 0 8.322 2.553 11.258 14.247 2.933 11.695 3.55 25.777 24.155 34.24 20.607 8.463 38.34 9.727 46.901-7.742 0 0-.556 15.25-18.1 22.225 0 0 3.814 4.22 6.872 22.777 1.17 7.098 8.631 15.934 22.382 26.51z" />
    <path fill="#22306B"
        d="M271.011 326.068c-1.142 4.416-2.894 7.176-5.253 8.284-.102.043-.809-1.525-1.15-3.34-.358-1.896-.197-4.107.162-4.63.703-1.022 1.278-.139 2.81-.132a33.605 33.605 0 003.431-.182z" />
    <path fill="#2841A6"
        d="M294.282 317.564c1.69 1.545 1.69 4.46 0 8.742-2.537 6.426-9.108 7.472-13.478 3.463-4.371-4.01-1.486-2.271-4.373-4.22 1.219-.737 3.038-2.092 5.88-4.319.607-.475 1.658-1.24 3.158-2.296 1.92-.742 3.421-1.195 4.505-1.366 1.083-.167 2.52-.17 4.308-.004z" />
    <path opacity=".45" fill="#02BAD3"
        d="M319.911 306.758c-1.429-5.13-2.784-8.815-4.065-11.06-8.532-14.929-33.687-28.816-56.345-13.13-11.016 7.625-22.712 22.422-13.076 48.457 1.1 3.028.71-10.36 3.614-21.876 1.423-5.639 4.931-10.928 7.279-13.428 3.28-3.49 11.522-11.172 20.85-12.127 10.982-1.123 23.162 4.922 26.019 6.6 3.524 2.068 8.766 7.59 15.724 16.564z" />
    <g transform="rotate(10 -2514.22 6503.68)">
        <path fill="#18286C"
            d="M-801.23-49.428c1.872 1.205 7.507 1.806 16.901 1.807 14.091-.002 18.214-6.307 28.482-6.307 6.845-.001 22.365 4.698 46.556 14.091 5.657-10.198 14.057-14.096 25.202-11.695 11.146 2.402-.055-.101-33.599-7.514l-41.317-3.295-29.347 4.249-12.879 6.561.001 2.103z" />
        <path fill="#1896A4"
            d="M-802.954-52.859c21.13-12.871 37.22-17.669 48.27-14.396 16.575 4.913 30.431 3.121 39.98.001 9.549-3.118 7.892-1.648 13.726 4.914 5.833 6.557 29.41 10.014 12.33 11.409-17.082 1.4-62.357-12.413-75.97-6.207-9.074 4.14-21.278 6.207-36.609 6.207l-1.727-1.928z" />
        <circle fill="#18286C" cx="-802.955" cy="-50.93" r="3" />
        <path opacity=".5" fill="#0C4180"
            d="M-800.503-52.912c7.401-3.566 11.52-5.417 12.356-5.552.836-.138 1.101.353.794 1.466l-13.15 4.086zm.166.363c6.566-1.328 10.273-1.984 11.122-1.973.848.011.432.441-1.246 1.295l-9.876.678z" />
    </g>
    <g transform="translate(1003 222)">
        <path fill="#18BBD0" d="M-731.989-150.636l-18.334-29.333 18.334 7.168v-.567l18.333-7.268-18.333 30z" />
        <ellipse fill="none" stroke="#27D6ED" stroke-width=".5" cx="-731.989" cy="-176.636" rx="45.666" ry="9.333" />
        <ellipse fill="none" stroke="#27D6ED" stroke-width=".5" cx="-731.656" cy="-177.303" rx="34" ry="6" />
        <path fill="#27D6ED" d="M-731.656-210.636l18 30.063-18.333 7.771-18.334-7.168 18.667-30.666z" />
        <circle fill="#27D6ED" cx="-769.323" cy="-171.303" r="2.333" />
        <circle fill="#27D6ED" cx="-705.656" cy="-173.303" r="2" />
    </g>
</svg>